<svg id="Layer_1" data-name="Layer 1" xmlns="http://www.w3.org/2000/svg" viewBox="0 0 54.26 44.9"><defs><style>.cls-1{fill:#fff;}.cls-2{fill:#db99c4;}</style></defs><path class="cls-1" d="M27.15,21.44a7.74,7.74,0,1,0,0,15.48,7.74,7.74,0,1,0,0-15.48Z"/><path class="cls-1" d="M47.54,33a26.06,26.06,0,0,0-2.72-.87A71.84,71.84,0,0,0,36,30.89c-.21,0-.28.07-.35.26a16.49,16.49,0,0,1-.9,2.21,8.74,8.74,0,0,1-16.14-2.11c-.11-.41-.13-.44-.48-.4-2.23.28-4.47.55-6.7.85a21.53,21.53,0,0,0-4.62,1.21,2.4,2.4,0,0,0-1.65,2.45,3.22,3.22,0,0,0,.43,1.45,2.64,2.64,0,0,0,2.62,1.08c.42-.13.86-.21,1.28-.31a2.21,2.21,0,0,1,2.66,1,2.27,2.27,0,0,0,2.12,1,4.73,4.73,0,0,0,2.3-.76,2.35,2.35,0,0,1,1.71-.31,4.6,4.6,0,0,1,1.69.79,12.76,12.76,0,0,0,1.73,1,2.51,2.51,0,0,0,2.7-.3c.28-.21.57-.41.87-.61a3.11,3.11,0,0,1,3.77,0l.95.65a2.68,2.68,0,0,0,2.72.18,12,12,0,0,0,1-.61,14.46,14.46,0,0,1,1.47-.86,2.55,2.55,0,0,1,2.56.11,6,6,0,0,0,1.32.56,3.3,3.3,0,0,0,.76.15,2.38,2.38,0,0,0,2.33-1.16,1.9,1.9,0,0,1,2-1c.64.07,1.27.2,1.9.31,2.07.38,3.15-1.09,3-2.94A2.15,2.15,0,0,0,47.54,33Z"/><path class="cls-1" d="M46,38.81c-.53-.12-1.06-.22-1.59-.33a1.18,1.18,0,0,0-1.44.63,3.06,3.06,0,0,1-3.15,1.5,6.74,6.74,0,0,1-2.64-1A1.23,1.23,0,0,0,36,39.53a3.83,3.83,0,0,0-.58.27L33.54,41a3.61,3.61,0,0,1-4.13-.1c-.33-.2-.63-.44-.95-.65a2.39,2.39,0,0,0-1.54-.38,3.24,3.24,0,0,0-1.71.83,3.69,3.69,0,0,1-4.44.32c-.63-.37-1.24-.78-1.87-1.15a3.65,3.65,0,0,0-.78-.35,1.08,1.08,0,0,0-.84.09,13.84,13.84,0,0,1-1.8.82,3.45,3.45,0,0,1-3.16-.3,3.28,3.28,0,0,1-1.06-1.16.83.83,0,0,0-1-.48l-1.89.4C8,38.93,8,39,8.2,39.3a4.89,4.89,0,0,0,1.55,1.52,17.34,17.34,0,0,0,4.94,2.33A48.08,48.08,0,0,0,29,44.9c.92-.06,2.64-.15,4.34-.32a30.73,30.73,0,0,0,6.77-1.39,14.08,14.08,0,0,0,5.3-3,4.72,4.72,0,0,0,.75-.91C46.33,39,46.26,38.88,46,38.81Z"/><path class="cls-1" d="M18.78,26.09A7,7,0,0,1,19.91,24c.17-.22.47-.46.45-.67s-.33-.45-.52-.66A35.15,35.15,0,0,0,8.55,14.25,14.15,14.15,0,0,0,5.27,13,4.28,4.28,0,0,0,0,17.23c0,.21,0,.42.06.63a3.59,3.59,0,0,0,2.39,3.06l16,5.37C18.64,26.37,18.72,26.28,18.78,26.09Z"/><path class="cls-1" d="M53.83,15.41C53.08,13.77,51.76,13,49.62,13a4.54,4.54,0,0,0-1.75.4c-1,.41-1.91.82-2.84,1.28a36.72,36.72,0,0,0-11,8.45.33.33,0,0,0,0,.52,6.83,6.83,0,0,1,1.41,2.45c.09.27.2.3.44.22,1.89-.63,3.78-1.23,5.67-1.86L51.88,21a2.66,2.66,0,0,0,1.32-.89A4.23,4.23,0,0,0,53.83,15.41Z"/><path class="cls-1" d="M32.12,21.38c-.13.25-.1.39.13.54a6.43,6.43,0,0,1,.82.64c.21.2.34.19.54,0,.6-.65,1.2-1.28,1.83-1.89A33.57,33.57,0,0,1,44.87,14c1.05-.49,2.13-.94,3.19-1.41a1,1,0,0,0,.56-.59A4.69,4.69,0,0,0,49,10a4,4,0,0,0-1.74-3.49,4.47,4.47,0,0,0-5.85.72,52.6,52.6,0,0,0-5.93,8.06C34.32,17.29,33.26,19.36,32.12,21.38Z"/><path class="cls-1" d="M6.24,12.52c.43.18.85.39,1.29.57a32.2,32.2,0,0,1,9.3,5.65c1.34,1.2,2.58,2.51,3.86,3.77.27.26.26.27.56,0a8.58,8.58,0,0,1,.84-.65.33.33,0,0,0,.13-.52,71.9,71.9,0,0,0-4.79-8.29,52.27,52.27,0,0,0-4.66-6,4.09,4.09,0,0,0-3-1.38c-.33,0-.67.07-1,.13a4.26,4.26,0,0,0-3.11,6.12A1.12,1.12,0,0,0,6.24,12.52Z"/><path class="cls-1" d="M28.85,20c-.08.44-.07.43.35.55s1.1.35,1.63.56.47.35.77-.28A63.33,63.33,0,0,1,40.1,7.74a3,3,0,0,0,.65-2.07,4,4,0,0,0-2.24-3.45,4.32,4.32,0,0,0-4.66.11A4.46,4.46,0,0,0,32,5.18c-.66,2.84-1.34,5.68-2,8.54C29.61,15.8,29.25,17.91,28.85,20Z"/><path class="cls-1" d="M19.38,14.74A70.83,70.83,0,0,1,22.81,21c.12.25.23.31.51.2a16.73,16.73,0,0,1,1.85-.62c.31-.09.36-.22.3-.49-.63-3.21-1.23-6.44-1.91-9.64-.4-1.93-.89-3.84-1.44-5.73a4,4,0,0,0-3.95-3.1c-.28,0-.56,0-.83.08a4.32,4.32,0,0,0-3.79,4.14A2.11,2.11,0,0,0,14,7.34,60.26,60.26,0,0,1,19.38,14.74Z"/><path class="cls-1" d="M25.51,16.45c.22,1.19.41,2.38.61,3.58,0,.22.11.32.35.3s.46,0,.69,0h0c.21,0,.43,0,.64,0s.37,0,.41-.32c.31-1.81.58-3.63,1-5.42.65-3,1.38-6,2.08-9a4.93,4.93,0,0,0,.16-2.09A4.39,4.39,0,0,0,27.25,0,4.26,4.26,0,0,0,23,5.23C24,8.92,24.82,12.67,25.51,16.45Z"/><path class="cls-1" d="M13.15,27.11a2.74,2.74,0,0,1,.86-.4,3.08,3.08,0,0,1-.87-.44,2.82,2.82,0,0,1-.41-.87,2.94,2.94,0,0,1-.42.87,3.07,3.07,0,0,1-.85.42l-.05.07A1.33,1.33,0,0,1,12.7,28,3.45,3.45,0,0,1,13.15,27.11Z"/><path class="cls-1" d="M11.18,28.4a2.87,2.87,0,0,1-.41.86,3.28,3.28,0,0,1-.86.42l-.05.07A1.31,1.31,0,0,1,11.15,31c.18-.31.24-.66.45-.86a2.85,2.85,0,0,1,.86-.4,3.14,3.14,0,0,1-.86-.43A3.06,3.06,0,0,1,11.18,28.4Z"/><path class="cls-1" d="M15,30.19a3.84,3.84,0,0,1,.45-.86,3,3,0,0,1,.86-.4,3.07,3.07,0,0,1-.87-.43,3.06,3.06,0,0,1-.41-.87,2.87,2.87,0,0,1-.41.86,3,3,0,0,1-.86.42l0,.07A1.32,1.32,0,0,1,15,30.19Z"/><path class="cls-1" d="M42.22,26.27a2.93,2.93,0,0,1-.41-.87,2.82,2.82,0,0,1-.41.87,3.08,3.08,0,0,1-.87.44,2.74,2.74,0,0,1,.86.4,3.45,3.45,0,0,1,.45.86,1.32,1.32,0,0,1,1.29-1.21l-.05-.07A3.28,3.28,0,0,1,42.22,26.27Z"/><path class="cls-1" d="M42.94,30.1a4.56,4.56,0,0,1,.45.86,1.31,1.31,0,0,1,1.29-1.21l0-.07a3.28,3.28,0,0,1-.86-.42,2.87,2.87,0,0,1-.41-.86,3.06,3.06,0,0,1-.42.87,3.14,3.14,0,0,1-.86.43A2.85,2.85,0,0,1,42.94,30.1Z"/><path class="cls-1" d="M39.49,27.63a3.06,3.06,0,0,1-.41.87,3.07,3.07,0,0,1-.87.43,3,3,0,0,1,.86.4,3.84,3.84,0,0,1,.45.86A1.32,1.32,0,0,1,40.81,29l-.05-.07a3,3,0,0,1-.86-.42A2.87,2.87,0,0,1,39.49,27.63Z"/><path class="cls-2" d="M27.15,21.44a7.74,7.74,0,1,1-7.79,7.66A7.71,7.71,0,0,1,27.15,21.44Zm-5.76,7.69A10.27,10.27,0,0,0,21.7,31a4.29,4.29,0,0,0,1.14,1.95.58.58,0,0,0,.81,0,.57.57,0,0,0,.09-.78c-.11-.17-.24-.33-.35-.5a4.5,4.5,0,0,1,2.36-6.85c.25-.08.51-.13.76-.21a.58.58,0,0,0,.41-.67.55.55,0,0,0-.59-.48,1.33,1.33,0,0,0-.28,0A5.61,5.61,0,0,0,21.39,29.13Z"/><path class="cls-2" d="M5.19,35.36a2.4,2.4,0,0,1,1.65-2.45,21.53,21.53,0,0,1,4.62-1.21c2.23-.3,4.47-.57,6.7-.85.35,0,.37,0,.48.4a8.74,8.74,0,0,0,16.14,2.11,16.49,16.49,0,0,0,.9-2.21c.07-.19.14-.29.35-.26a71.84,71.84,0,0,1,8.79,1.27,26.06,26.06,0,0,1,2.72.87,2.15,2.15,0,0,1,1.53,1.83c.16,1.85-.92,3.32-3,2.94-.63-.11-1.26-.24-1.9-.31a1.9,1.9,0,0,0-2,1,2.38,2.38,0,0,1-2.33,1.16,3.3,3.3,0,0,1-.76-.15,6,6,0,0,1-1.32-.56,2.55,2.55,0,0,0-2.56-.11,14.46,14.46,0,0,0-1.47.86,12,12,0,0,1-1,.61A2.68,2.68,0,0,1,30,40.08l-.95-.65a3.11,3.11,0,0,0-3.77,0c-.3.2-.59.4-.87.61a2.51,2.51,0,0,1-2.7.3,12.76,12.76,0,0,1-1.73-1,4.6,4.6,0,0,0-1.69-.79,2.35,2.35,0,0,0-1.71.31,4.73,4.73,0,0,1-2.3.76,2.27,2.27,0,0,1-2.12-1,2.21,2.21,0,0,0-2.66-1c-.42.1-.86.18-1.28.31a2.64,2.64,0,0,1-2.62-1.08A3.22,3.22,0,0,1,5.19,35.36Zm12.94-3.94a2.79,2.79,0,0,0-.29,0c-1.7.21-3.4.41-5.1.63a25.3,25.3,0,0,0-5.55,1.3A1.92,1.92,0,0,0,5.86,36a1.93,1.93,0,0,0,2.38,1.32A15.36,15.36,0,0,1,9.88,37a2.38,2.38,0,0,1,2.57,1.1,1.54,1.54,0,0,0,.23.29,1.84,1.84,0,0,0,1.88.67,6.6,6.6,0,0,0,1.69-.63,3.1,3.1,0,0,1,3.06-.08c.54.25,1,.62,1.53.92a8.44,8.44,0,0,0,1.24.62,1.84,1.84,0,0,0,1.69-.09c.75-.46,1.48-1,2.21-1.42A9.24,9.24,0,0,1,21,36.12,9,9,0,0,1,18.13,31.42Zm18.07,0c-1.32,3.88-3.87,6.27-7.86,6.92l2,1.26.12.07a2.09,2.09,0,0,0,2,.1,9,9,0,0,0,.91-.5c.5-.3,1-.67,1.49-.92a3.21,3.21,0,0,1,3.25,0,6.31,6.31,0,0,0,1.5.58,1.86,1.86,0,0,0,2.12-.77c.09-.12.18-.23.26-.35A2,2,0,0,1,43.79,37a22.86,22.86,0,0,1,2.33.31c1.7.28,2.42-.7,2.43-2.19a1.68,1.68,0,0,0-1.31-1.58c-.92-.32-1.85-.64-2.8-.88a48.54,48.54,0,0,0-6-.92Z"/><path class="cls-2" d="M29,44.9a48.08,48.08,0,0,1-14.31-1.75,17.34,17.34,0,0,1-4.94-2.33A4.89,4.89,0,0,1,8.2,39.3C8,39,8,38.93,8.39,38.85l1.89-.4a.83.83,0,0,1,1,.48,3.28,3.28,0,0,0,1.06,1.16,3.45,3.45,0,0,0,3.16.3,13.84,13.84,0,0,0,1.8-.82,1.08,1.08,0,0,1,.84-.09,3.65,3.65,0,0,1,.78.35c.63.37,1.24.78,1.87,1.15a3.69,3.69,0,0,0,4.44-.32,3.24,3.24,0,0,1,1.71-.83,2.39,2.39,0,0,1,1.54.38c.32.21.62.45.95.65a3.61,3.61,0,0,0,4.13.1l1.89-1.16a3.83,3.83,0,0,1,.58-.27,1.23,1.23,0,0,1,1.13.11,6.74,6.74,0,0,0,2.64,1,3.06,3.06,0,0,0,3.15-1.5,1.18,1.18,0,0,1,1.44-.63c.53.11,1.06.21,1.59.33.3.07.37.19.2.45a4.72,4.72,0,0,1-.75.91,14.08,14.08,0,0,1-5.3,3,30.73,30.73,0,0,1-6.77,1.39C31.64,44.75,29.92,44.84,29,44.9ZM8.86,39.26c.06.09.08.15.12.18.21.21.42.43.65.62a15.51,15.51,0,0,0,5,2.5,42.33,42.33,0,0,0,11.34,1.78,48.93,48.93,0,0,0,9.44-.57,25.22,25.22,0,0,0,6.15-1.72,11.89,11.89,0,0,0,3.74-2.51,3.11,3.11,0,0,0,.27-.3L44.11,39a.51.51,0,0,0-.64.3,3.78,3.78,0,0,1-3.85,1.84,7.69,7.69,0,0,1-2.64-1,1,1,0,0,0-1.1,0c-.69.41-1.36.84-2.06,1.23a5.42,5.42,0,0,1-1.26.55A4.12,4.12,0,0,1,29,41.24c-.33-.23-.67-.46-1-.66a1.65,1.65,0,0,0-1.76,0c-.28.16-.53.37-.8.56a4.19,4.19,0,0,1-4.94.26c-.57-.33-1.13-.7-1.7-1A4.84,4.84,0,0,0,18,40a.53.53,0,0,0-.37,0c-.63.28-1.24.63-1.89.86a4.11,4.11,0,0,1-3.31-.14,3.77,3.77,0,0,1-1.6-1.54c-.08-.14-.16-.28-.37-.24Z"/><path class="cls-2" d="M0,17.23A4.28,4.28,0,0,1,5.27,13a14.15,14.15,0,0,1,3.28,1.25,35.15,35.15,0,0,1,11.29,8.38c.19.21.49.43.52.66s-.28.45-.45.67a7,7,0,0,0-1.13,2.13c-.06.19-.14.28-.37.2l-16-5.37A3.59,3.59,0,0,1,.06,17.86C0,17.65,0,17.44,0,17.23Zm19.67,6-.15-.17A34.31,34.31,0,0,0,8.14,14.66a17.38,17.38,0,0,0-3-1.11,3.69,3.69,0,0,0-4.6,3.52,3.29,3.29,0,0,0,2.28,3.41l13.75,4.63c.58.2,1.16.38,1.68.55Z"/><path class="cls-2" d="M49.62,13c2.14,0,3.46.81,4.21,2.45a4.23,4.23,0,0,1-.63,4.65,2.66,2.66,0,0,1-1.32.89L41.57,24.42c-1.89.63-3.78,1.23-5.67,1.86-.24.08-.35,0-.44-.22a6.83,6.83,0,0,0-1.41-2.45.33.33,0,0,1,0-.52,36.72,36.72,0,0,1,11-8.45c.93-.46,1.88-.87,2.84-1.28A4.54,4.54,0,0,1,49.62,13ZM36,25.67l.26-.07,3.64-1.19,11.74-3.94a2.69,2.69,0,0,0,1.19-.78,3.81,3.81,0,0,0-1.09-5.78,4.12,4.12,0,0,0-3.5-.08A34.11,34.11,0,0,0,37,20.91l-2.4,2.28Z"/><path class="cls-2" d="M49,10a4.69,4.69,0,0,1-.41,2,1,1,0,0,1-.56.59C47,13,45.92,13.49,44.87,14a33.57,33.57,0,0,0-9.43,6.67c-.63.61-1.23,1.24-1.83,1.89-.2.21-.33.22-.54,0a6.43,6.43,0,0,0-.82-.64c-.23-.15-.26-.29-.13-.54,1.14-2,2.2-4.09,3.39-6.07a52.6,52.6,0,0,1,5.93-8.06,4.47,4.47,0,0,1,5.85-.72A4,4,0,0,1,49,10Zm-15.72,12,.26-.27a36,36,0,0,1,10.19-7.86c1.3-.65,2.64-1.21,4-1.8a.75.75,0,0,0,.44-.45,4.07,4.07,0,0,0,0-3.28,3.82,3.82,0,0,0-6.06-1,19.26,19.26,0,0,0-1.34,1.51,64.48,64.48,0,0,0-7.77,12l-.33.64Z"/><path class="cls-2" d="M9.75,5.68a4.09,4.09,0,0,1,3,1.38,52.27,52.27,0,0,1,4.66,6,71.9,71.9,0,0,1,4.79,8.29.33.33,0,0,1-.13.52,8.58,8.58,0,0,0-.84.65c-.3.24-.29.23-.56,0-1.28-1.26-2.52-2.57-3.86-3.77a32.2,32.2,0,0,0-9.3-5.65c-.44-.18-.86-.39-1.29-.57a1.12,1.12,0,0,1-.6-.59A4.26,4.26,0,0,1,8.75,5.81C9.08,5.75,9.42,5.72,9.75,5.68ZM21.69,21.5c-.48-.91-.93-1.8-1.41-2.68A59.23,59.23,0,0,0,12.46,7.53a3.94,3.94,0,0,0-5.67-.15A3.77,3.77,0,0,0,5.87,11a1.38,1.38,0,0,0,1,1.26,3.12,3.12,0,0,1,.42.18,36.21,36.21,0,0,1,7.43,4,40.87,40.87,0,0,1,5.9,5.25l.33.4Z"/><path class="cls-2" d="M40.75,5.67a3,3,0,0,1-.65,2.07,63.33,63.33,0,0,0-8.5,13.09c-.3.63-.23.5-.77.28s-1.08-.39-1.63-.56-.43-.11-.35-.55c.4-2.09.76-4.2,1.21-6.28.62-2.86,1.3-5.7,2-8.54a4.46,4.46,0,0,1,1.83-2.85,4.32,4.32,0,0,1,4.66-.11A4,4,0,0,1,40.75,5.67ZM31.09,20.59l.05-.05.46-.9a62.53,62.53,0,0,1,8-12.22,2.3,2.3,0,0,0,.56-1.61,3.68,3.68,0,0,0-2.54-3.38,3.68,3.68,0,0,0-5,2.44c-.16.53-.3,1.06-.44,1.59-1,4.05-1.86,8.13-2.59,12.24L29.41,20Z"/><path class="cls-2" d="M18.17,1.57a4,4,0,0,1,3.95,3.1c.55,1.89,1,3.8,1.44,5.73.68,3.2,1.28,6.43,1.91,9.64.06.27,0,.4-.3.49a16.73,16.73,0,0,0-1.85.62c-.28.11-.39.05-.51-.2a70.83,70.83,0,0,0-3.43-6.21A60.26,60.26,0,0,0,14,7.34a2.11,2.11,0,0,1-.41-1.55,4.32,4.32,0,0,1,3.79-4.14C17.61,1.61,17.89,1.59,18.17,1.57ZM24.9,20a.48.48,0,0,0,0-.12c-.71-3.51-1.39-7-2.13-10.51C22.43,7.78,22,6.2,21.54,4.66a3.51,3.51,0,0,0-4.37-2.43,3.79,3.79,0,0,0-3,3.16,2,2,0,0,0,.54,1.94,4.13,4.13,0,0,1,.47.55A65.93,65.93,0,0,1,22.93,20l.31.58Z"/><path class="cls-2" d="M27.16,20.32c-.23,0-.46,0-.69,0s-.31-.08-.35-.3c-.2-1.2-.39-2.39-.61-3.58C24.82,12.67,24,8.92,23,5.23A4.26,4.26,0,0,1,27.25,0a4.39,4.39,0,0,1,4.16,3.45,4.93,4.93,0,0,1-.16,2.09c-.7,3-1.43,6-2.08,9.05-.38,1.79-.65,3.61-1,5.42,0,.28-.15.36-.41.32s-.43,0-.64,0Zm-.51-.53a6.47,6.47,0,0,1,.77,0c.24,0,.29-.08.32-.29.22-1.28.43-2.56.67-3.84.65-3.53,1.48-7,2.37-10.52a4.15,4.15,0,0,0,.09-1.57,3.82,3.82,0,0,0-4.14-3A3.71,3.71,0,0,0,23.5,5.1c1.13,4,2,8.05,2.7,12.12C26.35,18.07,26.49,18.91,26.65,19.79Z"/><path class="cls-2" d="M12.73,25.4a2.82,2.82,0,0,0,.41.87,3.08,3.08,0,0,0,.87.44,2.74,2.74,0,0,0-.86.4,3.45,3.45,0,0,0-.45.86,1.33,1.33,0,0,0-1.29-1.21l.05-.07a3.07,3.07,0,0,0,.85-.42A2.94,2.94,0,0,0,12.73,25.4Z"/><path class="cls-2" d="M11.18,28.4a3.06,3.06,0,0,0,.42.87,3.14,3.14,0,0,0,.86.43,2.85,2.85,0,0,0-.86.4c-.21.2-.27.55-.45.86a1.31,1.31,0,0,0-1.29-1.21l.05-.07a3.28,3.28,0,0,0,.86-.42A2.87,2.87,0,0,0,11.18,28.4Z"/><path class="cls-2" d="M15.05,27.63a3.06,3.06,0,0,0,.41.87,3.07,3.07,0,0,0,.87.43,3,3,0,0,0-.86.4,3.84,3.84,0,0,0-.45.86A1.32,1.32,0,0,0,13.73,29l0-.07a3,3,0,0,0,.86-.42A2.87,2.87,0,0,0,15.05,27.63Z"/><path class="cls-2" d="M41.81,25.4a2.82,2.82,0,0,1-.41.87,3.08,3.08,0,0,1-.87.44,2.74,2.74,0,0,1,.86.4,3.45,3.45,0,0,1,.45.86,1.32,1.32,0,0,1,1.29-1.21l-.05-.07a3.28,3.28,0,0,1-.86-.42A2.93,2.93,0,0,1,41.81,25.4Z"/><path class="cls-2" d="M43.36,28.4a3.06,3.06,0,0,1-.42.87,3.14,3.14,0,0,1-.86.43,2.85,2.85,0,0,1,.86.4,4.56,4.56,0,0,1,.45.86,1.31,1.31,0,0,1,1.29-1.21l0-.07a3.28,3.28,0,0,1-.86-.42A2.87,2.87,0,0,1,43.36,28.4Z"/><path class="cls-2" d="M39.49,27.63a3.06,3.06,0,0,1-.41.87,3.07,3.07,0,0,1-.87.43,3,3,0,0,1,.86.4,3.84,3.84,0,0,1,.45.86A1.32,1.32,0,0,1,40.81,29l-.05-.07a3,3,0,0,1-.86-.42A2.87,2.87,0,0,1,39.49,27.63Z"/></svg>