<svg id="Layer_1" data-name="Layer 1" xmlns="http://www.w3.org/2000/svg" viewBox="0 0 204.6 30.18"><defs><style>.cls-1{fill:#db99c4;}</style></defs><path class="cls-1" d="M79.92,8.52a6.52,6.52,0,0,0-5,.81,9.79,9.79,0,0,0-3.72,4.09c-1.2,2.4-2.34,4.84-3.66,7.18q-.42.76-.87,1.53h0c-.46.78-.94,1.55-1.45,2.29s-.89,1.26-1.37,1.86a7.28,7.28,0,0,1-2.56,2.18,1.16,1.16,0,0,1-1.83-.87l0-.15a10.28,10.28,0,0,1-.16-2c0-3.68,0-8.13,0-11.8a6.26,6.26,0,0,0-.58-2.73,5.57,5.57,0,0,0-4-3,11.46,11.46,0,0,0-3.25-.25,7.87,7.87,0,0,0-3.9,1.09,4.18,4.18,0,0,0-1.78,1.8,4.42,4.42,0,0,0,.35,4.31c.11.17.21.21.39.09s.11-.22,0-.43a3,3,0,0,1-.23-.61,3.38,3.38,0,0,1,.93-3.71,6.34,6.34,0,0,1,1.1-.76,5.08,5.08,0,0,1,4.38-.34,3.7,3.7,0,0,1,2.18,2.56A11.79,11.79,0,0,1,55,14.34c0,.41,0,.41-.37.42a15.45,15.45,0,0,0-8.1,2.34,7.91,7.91,0,0,0-3.81,8.3,4.86,4.86,0,0,0,2.84,3.79,6.64,6.64,0,0,0,2.64.62,7.49,7.49,0,0,0,6.65-3.35c0-.06,0-.16.17-.14,0,.19.05.38.07.57a3.38,3.38,0,0,0,2,2.87,4.18,4.18,0,0,0,3.21.18A7.38,7.38,0,0,0,63,28.34a17,17,0,0,0,2.38-2.89c.26-.38.51-.77.77-1.16l.45-.68c0,.13,0,.19,0,.24a17,17,0,0,1,0,2,5.33,5.33,0,0,1-.42,1.67,2.53,2.53,0,0,1-2,1.6c-.14,0-.32,0-.36.22s0,.37.39.37c1.56,0,3.11-.06,4.67,0s3,0,4.57,0c.17,0,.37,0,.39-.23s-.15-.29-.35-.31a2.43,2.43,0,0,1-2-1.6A6.83,6.83,0,0,1,71,25c0-2.95.17-5.42.12-8.36a4.61,4.61,0,0,1,.61-2.42,8.79,8.79,0,0,1,3.41-3.56,2.05,2.05,0,0,1,3.12,1.24,8,8,0,0,0,.31.86,1.62,1.62,0,0,0,1.29.9,3,3,0,0,0,1.83-.39,1.59,1.59,0,0,0,.9-1.59A3.32,3.32,0,0,0,79.92,8.52ZM54.28,25.79a4.45,4.45,0,0,1-3.84,1.4,3.33,3.33,0,0,1-2.72-1.76A6,6,0,0,1,50.92,17a8.87,8.87,0,0,1,3.61-.9c.47,0,.49,0,.49.41v3.92h0c0,1.17-.05,2.34,0,3.5A2.42,2.42,0,0,1,54.28,25.79Z"/><path class="cls-1" d="M19.15,2.62A8.05,8.05,0,0,0,13.89.81H.37C.21.82,0,.77,0,1.05s.14.28.32.3A2.52,2.52,0,0,1,2.37,3,6.35,6.35,0,0,1,2.94,5.8q0,9.45,0,18.9a7.36,7.36,0,0,1-.27,2.09A2.83,2.83,0,0,1,.23,29.17c-.11,0-.22.06-.22.2s0,.23.07.31a.6.6,0,0,0,.35.05H9.89c.16,0,.31,0,.32-.25s-.11-.28-.29-.3a2.45,2.45,0,0,1-2-1.64,7.64,7.64,0,0,1-.51-2.91c0-2.53,0-5.07,0-7.6,0-.53,0-.52.49-.33a11.86,11.86,0,0,0,7.69.38,8,8,0,0,0,4.8-3.56,9.28,9.28,0,0,0,1.06-7A6.59,6.59,0,0,0,19.15,2.62Zm-3,9.28a6,6,0,0,1-4.06,3.37,6.81,6.81,0,0,1-3.61-.15c-.26-.07-.52-.17-.79-.24s-.34-.2-.33-.42V6.39a6.5,6.5,0,0,1,.23-1.86,3,3,0,0,1,2.8-2.18A5.51,5.51,0,0,1,14.5,3.44a5.85,5.85,0,0,1,2.32,4.37A7.6,7.6,0,0,1,16.15,11.9Z"/><path class="cls-1" d="M93.23,29.21a1,1,0,0,0-.29-.07A2.29,2.29,0,0,1,91.26,28a6.11,6.11,0,0,1-.73-3.21c0-3.92,0-7.84,0-11.75h0V1.11c0-.41,0-.44-.41-.29a19.24,19.24,0,0,1-2.36.67,18,18,0,0,1-4,.43c-.17,0-.38,0-.39.25s.17.26.34.26a1.9,1.9,0,0,1,1.37.75,5.57,5.57,0,0,1,.74,1.18,5.94,5.94,0,0,1,.44,2.57V24.46a8.63,8.63,0,0,1-.12,1.69c-.3,1.47-.82,2.76-2.54,3a.22.22,0,0,0-.19.23c0,.29.17.31.38.31h9.39c.12,0,.2-.06.2-.18S93.39,29.27,93.23,29.21Z"/><path class="cls-1" d="M64,9.85a2.41,2.41,0,0,1,1.23.46,3.76,3.76,0,0,1,1.35,2.52A34.17,34.17,0,0,1,66.67,17c0,.86,0,1.64,0,2.43,0,.17-.07.44.11.49s.2-.24.28-.38q1.69-3.32,3.37-6.64a2.68,2.68,0,0,0,.47-1.1c0-.9,0-2.5,0-3.4,0-.26-.1-.31-.34-.22A19.85,19.85,0,0,1,64,9.38c-.15,0-.32,0-.33.21S63.79,9.83,64,9.85Z"/><path class="cls-1" d="M181.61,9.79a2.37,2.37,0,0,1,1.23.46,3.75,3.75,0,0,1,1.35,2.52,34.26,34.26,0,0,1,.14,4.15v2.42c0,.17-.07.44.11.49s.2-.24.28-.38q1.69-3.32,3.37-6.64a2.68,2.68,0,0,0,.47-1.1c0-.9,0-2.5,0-3.4,0-.26-.1-.31-.34-.22a19.85,19.85,0,0,1-6.61,1.23c-.15,0-.32,0-.33.21S181.45,9.77,181.61,9.79Z"/><path class="cls-1" d="M53,22.38l-.52-.18a1.47,1.47,0,0,1-1-1c-.08-.23-.17-.47-.26-.71,0-.05,0-.12-.11-.12s-.09.06-.11.12l-.22.63a1.53,1.53,0,0,1-1,1.05l-.6.2c-.07,0-.18,0-.17.13s.1.09.16.11l.38.11A1.72,1.72,0,0,1,50.77,24a4.13,4.13,0,0,0,.17.45c0,.06,0,.12.11.13s.09-.07.11-.13.12-.34.17-.52a1.58,1.58,0,0,1,1.07-1.14c.18,0,.36-.12.54-.18s.21,0,.22-.13S53,22.41,53,22.38Z"/><path class="cls-1" d="M29.14,21.21a10.3,10.3,0,0,1,2.37-1.73c1.4-.78,2.88-1.37,4.32-2.06A9.44,9.44,0,0,0,39,15.19a3.61,3.61,0,0,0,.85-3.09A4.47,4.47,0,0,0,37.55,9a9.43,9.43,0,0,0-6.23-1.25,9.12,9.12,0,0,0-7.86,6.58,14.08,14.08,0,0,0-.59,6.38A11.37,11.37,0,0,0,26,27.59a7.83,7.83,0,0,0,5.8,2.4h.34a6.69,6.69,0,0,0,5-2.14,8.73,8.73,0,0,0,2.06-4c.1-.42.16-.84.23-1.27,0-.13.08-.78,0-.91-.42-.41-.61.16-.67.48a7.31,7.31,0,0,1-2.07,4.17,5.09,5.09,0,0,1-6.14.87A5.8,5.8,0,0,1,28,24a1,1,0,0,1,0-.59A4.37,4.37,0,0,1,29.14,21.21Zm-1.47.23a10.26,10.26,0,0,1-.4-1.89,16.6,16.6,0,0,1-.06-3.66,10,10,0,0,1,1.36-4.47A4,4,0,0,1,31,9.54a3.45,3.45,0,0,1,4.18,1.62,4.51,4.51,0,0,1,.1,4.12,4.07,4.07,0,0,1-2,1.85c-.92.49-1.86,1-2.78,1.44a5.74,5.74,0,0,0-2.39,2C28,20.87,27.81,21.15,27.67,21.44Z"/><path class="cls-1" d="M146.93,21.15a10.3,10.3,0,0,1,2.37-1.73c1.4-.78,2.88-1.37,4.32-2.06a9.44,9.44,0,0,0,3.19-2.23,3.55,3.55,0,0,0,.85-3.08A4.44,4.44,0,0,0,155.34,9a9.43,9.43,0,0,0-6.23-1.25,9.12,9.12,0,0,0-7.86,6.58,14.07,14.07,0,0,0-.58,6.38,11.27,11.27,0,0,0,3.15,6.87,7.83,7.83,0,0,0,5.8,2.4H150a6.69,6.69,0,0,0,5-2.14,8.68,8.68,0,0,0,2.06-4c.1-.42.16-.84.23-1.27,0-.13.08-.78,0-.91-.42-.41-.61.16-.67.48a7.28,7.28,0,0,1-2.07,4.17,5.09,5.09,0,0,1-6.14.87A5.8,5.8,0,0,1,145.81,24a1,1,0,0,1,0-.59A4.45,4.45,0,0,1,146.93,21.15Zm-1.47.23a10.26,10.26,0,0,1-.4-1.89,16.6,16.6,0,0,1-.06-3.66,10,10,0,0,1,1.36-4.47,3.91,3.91,0,0,1,2.41-1.87A3.44,3.44,0,0,1,153,11.1a4.51,4.51,0,0,1,.1,4.12,4,4,0,0,1-2,1.85c-.91.5-1.85,1-2.77,1.45a5.61,5.61,0,0,0-2.4,2C145.74,20.81,145.61,21.09,145.46,21.38Z"/><path class="cls-1" d="M170.72,22.32l-.52-.18a1.5,1.5,0,0,1-1-1l-.25-.72c0-.05,0-.12-.12-.12s-.08.07-.1.12c-.08.21-.16.42-.22.63a1.53,1.53,0,0,1-1,1.05l-.61.2c-.07,0-.18,0-.17.13s.1.09.16.11l.38.11a1.73,1.73,0,0,1,1.34,1.3,4.19,4.19,0,0,0,.16.46s0,.11.11.12.09-.07.11-.13l.18-.51a1.56,1.56,0,0,1,1.06-1.15c.18-.05.36-.12.54-.18s.21,0,.22-.13S170.8,22.35,170.72,22.32Z"/><path class="cls-1" d="M204.3,29.3a2.61,2.61,0,0,1-2.16-1.94,7.41,7.41,0,0,1-.41-2.64c0-3.11,0-6.22,0-9.32a12,12,0,0,0-.36-3.26A4.68,4.68,0,0,0,198,8.68a7.39,7.39,0,0,0-2.39-.23,6.61,6.61,0,0,0-3.74,1.33,10.78,10.78,0,0,0-3.29,4.08c-1.17,2.42-2.32,4.84-3.61,7.19q-.32.59-.66,1.17h0a33.63,33.63,0,0,1-2.68,3.93.18.18,0,0,1-.05.07A7.09,7.09,0,0,1,179,28.4a1.15,1.15,0,0,1-1.82-.87.8.8,0,0,1,0-.15,8.91,8.91,0,0,1-.16-2c0-3.68,0-8.12,0-11.8a6.26,6.26,0,0,0-.58-2.73,5.56,5.56,0,0,0-4-3,11.46,11.46,0,0,0-3.25-.25,8,8,0,0,0-3.9,1.09,4.11,4.11,0,0,0-1.47,6c.1.18.38.34.56.22a.46.46,0,0,0,.08-.58,3.29,3.29,0,0,1-.29-.69c-.38-1.41-.38-2.57.78-3.59a6.34,6.34,0,0,1,1.1-.76A5,5,0,0,1,170.38,9a3.7,3.7,0,0,1,2.18,2.56,11.63,11.63,0,0,1,.21,2.64c0,.41,0,.5-.38.51A15.46,15.46,0,0,0,164.28,17a7.91,7.91,0,0,0-3.81,8.3,4.85,4.85,0,0,0,2.85,3.79,6.63,6.63,0,0,0,2.63.62,7.46,7.46,0,0,0,6.65-3.35c0-.06.05-.16.18-.14l.06.57a3.4,3.4,0,0,0,2,2.87,5,5,0,0,0,3.5,0,6.22,6.22,0,0,0,2.33-1.58,12,12,0,0,0,1-1.1,28.31,28.31,0,0,0,2.11-3c.11-.17.23-.33.36-.54v0c0,.91.12,1.32.05,2.13a5.23,5.23,0,0,1-.16,1c-.41,1.27-1,2.39-2.49,2.56l-.08,0a.22.22,0,0,0,0,.41.84.84,0,0,0,.27,0c3.14,0,6.27,0,9.4,0,.16,0,.34,0,.36-.21s-.16-.29-.33-.31A2.66,2.66,0,0,1,189,27.34a7.82,7.82,0,0,1-.44-2.71c0-2.85,0-4.95,0-7.81a3.76,3.76,0,0,1,.61-2.27c.2-.29.37-.6.58-.89a8.06,8.06,0,0,1,2.45-2.38,3,3,0,0,1,4.68,1.58,8.14,8.14,0,0,1,.56,3c0,3.37,0,6,0,9.35a5.57,5.57,0,0,1-.52,2.43,2.68,2.68,0,0,1-2.14,1.72.8.8,0,0,0-.15,0c-.11,0-.18.11-.16.23a.2.2,0,0,0,.18.19,5.46,5.46,0,0,0,.57,0c.79,0,1.58,0,2.38,0h6.66c.15,0,.32,0,.34-.21S204.46,29.32,204.3,29.3ZM172,25.73a4.42,4.42,0,0,1-3.84,1.4,3.32,3.32,0,0,1-2.71-1.76c-1.49-2.75-.75-6.64,3.19-8.43a9.2,9.2,0,0,1,3.61-.9c.48,0,.49,0,.49.41v3.92h0c0,1.17,0,2.34,0,3.5A2.4,2.4,0,0,1,172,25.73Z"/><path class="cls-1" d="M127,19.86c-.46-.49-.66.26-.72.42A12.18,12.18,0,0,1,125,23a8.48,8.48,0,0,1-13.75,1.24,12.74,12.74,0,0,1-2.56-4.55,17.76,17.76,0,0,1-.86-6.24,18.68,18.68,0,0,1,.4-3.94,13,13,0,0,1,2-5.12,6.79,6.79,0,0,1,6.13-3.19,9.69,9.69,0,0,1,5.42,2.08c2,1.51,3.42,2.8,4.17,5.22a1.3,1.3,0,0,0,.15.34.19.19,0,0,0,.25.08.2.2,0,0,0,.14-.22,1.55,1.55,0,0,0-.07-.31c-.23-.94-.48-1.88-.72-2.82q-.6-2.41-1.22-4.85c0-.16-.07-.36-.3-.33s-.2.22-.2.39a3.09,3.09,0,0,1-.07,1,.51.51,0,0,1-.65.43,1.82,1.82,0,0,1-.72-.29A14.37,14.37,0,0,0,119.64.5a13.71,13.71,0,0,0-5-.44,11.65,11.65,0,0,0-4.78,1.47,12.73,12.73,0,0,0-5.77,7.14,19.67,19.67,0,0,0-.91,9,15.7,15.7,0,0,0,3.74,8.78,10.51,10.51,0,0,0,4.64,3.08,13,13,0,0,0,4.84.59,10.77,10.77,0,0,0,4.34-1.2A12.49,12.49,0,0,0,127,21C127,20.82,127.2,20,127,19.86Z"/><path class="cls-1" d="M138.26,29.29a2.49,2.49,0,0,1-2-1.59,8.31,8.31,0,0,1-.64-3.48c0-3.86,0-7.73,0-11.6,0-1.37,0-2.75,0-4.12s0-2.67,0-4,0-2.46,0-3.69c0-.43,0-.46-.45-.3a15.28,15.28,0,0,1-4.8,1.08c-.55,0-1.11,0-1.66.08-.15,0-.31,0-.32.23s.15.24.3.26a2.66,2.66,0,0,1,2.29,2,9,9,0,0,1,.48,3q0,8.63,0,17.26a7.76,7.76,0,0,1-.45,2.86,2.79,2.79,0,0,1-2.31,2.07.28.28,0,0,0-.13,0,.2.2,0,0,0-.16.2.21.21,0,0,0,.19.22,3.11,3.11,0,0,0,.43,0h6.52c.88,0,1.77,0,2.66,0,.14,0,.32,0,.33-.2S138.43,29.31,138.26,29.29Z"/></svg>